# AST/ASF file generated using VICON BodyLanguage
# -----------------------------------------------
:version 1.10
:name VICON
:units
  mass 1.0
  length 0.45
  angle deg
:documentation
   .ast/.asf automatically generated from VICON data using
   VICON BodyBuilder and BodyLanguage model FoxedUp or BRILLIANT.MOD
:root
   order TX TY TZ RX RY RZ
   axis XYZ
   position 0 0 0  
   orientation 0 0 0 
:bonedata
  begin
     id 1 
     name lhipjoint
     direction 0.645893 -0.654526 0.392961 
     length 2.38111 
     axis 0 0 0  XYZ
  end
  begin
     id 2 
     name lfemur
     direction 0.34202 -0.939693 0  
     length 6.6822  
     axis 0 0 20  XYZ
    dof rx ry rz
    limits (-160.0 20.0)
           (-70.0 70.0)
           (-60.0 70.0)
  end
  begin
     id 3 
     name ltibia
     direction 0.34202 -0.939693 0   
     length 6.93904   
     axis 0 0 20   XYZ
    dof rx
    limits (-10.0 170.0)
  end
  begin
     id 4 
     name lfoot
     direction 0.0694967 -0.190941 0.979138   
     length 2.13616   
     axis -90 7.62852e-016 20   XYZ
    dof rx rz
    limits (-45.0 90.0)
           (-70.0 20.0)
  end
  begin
     id 5 
     name ltoes
     direction 1.535e-011 -4.2202e-011 1   
     length 1.07536   
     axis -90 7.62852e-016 20   XYZ
    dof rx
    limits (-90.0 20.0)
  end
  begin
     id 6 
     name rhipjoint
     direction -0.700219 -0.612087 0.367481   
     length 2.54621  
     axis 0 0 0  XYZ 
  end
  begin
     id 7 
     name rfemur
     direction -0.34202 -0.939693 0   
     length 6.55353   
     axis 0 0 -20   XYZ
    dof rx ry rz
    limits (-160.0 20.0)
           (-70.0 70.0)
           (-70.0 60.0)
  end
  begin
     id 8 
     name rtibia
     direction -0.34202 -0.939693 0   
     length 6.8736   
     axis 0 0 -20   XYZ
    dof rx
    limits (-10.0 170.0)
 end
 begin
     id 9 
     name rfoot
     direction -0.0679995 -0.186827 0.980037   
     length 2.1218  
     axis -90 -7.62852e-016 -20   XYZ
    dof rx rz
    limits (-45.0 90.0)
           (-20.0 70.0)
  end
  begin
     id 10 
     name rtoes
     direction -1.53589e-011 -4.21772e-011 1   
     length 1.06864   
     axis -90 -7.62852e-016 -20   XYZ
    dof rx
    limits (-90.0 20.0)
  end
  begin
     id 11 
     name lowerback
     direction -0.0416607 0.996347 -0.0745409   
     length 2.12205   
     axis 0 0 0   XYZ
    dof rx ry rz
    limits (-20.0 45.0)
           (-30.0 30.0)
           (-30.0 30.0)
  end
  begin
     id 12 
     name upperback
     direction -0.000153993 0.999276 -0.0380568   
     length 2.12759   
     axis 0 0 0   XYZ
    dof rx ry rz
    limits (-20.0 45.0)
           (-30.0 30.0)
           (-30.0 30.0)
  end
  begin
     id 13 
     name thorax
     direction 0.0187671 0.999821 -0.00241421   
     length 2.13704   
     axis 0 0 0   XYZ
    dof rx ry rz
    limits (-20.0 45.0)
           (-30.0 30.0)
           (-30.0 30.0)
  end
  begin
     id 14 
     name lowerneck
     direction 0.0268157 0.964865 0.261374   
     length 1.65253   
     axis 0 0 0   XYZ
    dof rx ry rz
    limits (-20.0 45.0)
           (-30.0 30.0)
           (-30.0 30.0)
  end
  begin
     id 15 
     name upperneck
     direction 0.00263774 0.939908 -0.341418   
     length 1.72375   
     axis 0 0 0   XYZ
    dof rx ry rz
    limits (-20.0 45.0)
           (-30.0 30.0)
           (-30.0 30.0)
  end
  begin
     id 16
     name head
     direction -0.00526001 0.989001 -0.147818  
     length 1.74878  
     axis 0 0 0   XYZ
    dof rx ry rz
    limits (-20.0 45.0)
           (-30.0 30.0)
           (-30.0 30.0)
  end
  begin
     id 17 
     name lclavicle
     direction 0.881214 0.461162 -0.103884  
     length 3.25108  
     axis 0 0 0   XYZ
    dof ry rz
    limits (-20.0 10.0)
           (0.0 20.0)
  end
  begin
     id 18 
     name lhumerus
     direction 1 -4.4899e-011 3.38092e-027   
     length 4.87408   
     axis 180 -30 -90   XYZ
    dof rx ry rz
    limits (-60.0 90.0)
           (-90.0 90.0)
           (-90.0 90.0)
  end
  begin
     id 19
     name lradius
     direction 1 -4.48931e-011 9.96288e-027   
     length 2.76729   
     axis 180 -30 -90   XYZ
    dof rx
    limits (-10.0 170.0)
  end
  begin
     id 20
     name lwrist
     direction 1 -4.4896e-011 1.50617e-026   
     length 1.38364   
     axis -9.31234e-015 90 90   XYZ
    dof ry
    limits (-180.0 0.0)
 end
  begin
     id 21 
     name lhand
     direction 1 -4.49038e-011 3.01286e-026   
     length 0.98922   
     axis -1.92217e-014 90 90   XYZ
    dof rx rz
    limits (-90.0 90.0)
           (-45.0 45.0)
  end
  begin
     id 22 
     name lfingers
     direction 1 -4.49051e-011 6.02588e-026   
     length 0.797535   
     axis -3.84436e-014 90 90   XYZ
    dof rx
    limits (0.0 90.0)
  end
  begin
     id 23
     name lthumb
     direction 0.707107 -6.34901e-011 0.707107   
     length 1.14511   
     axis -90 45 2.19363e-014   XYZ
    dof rx rz
    limits (-45.0 45.0)
           (-45.0 45.0)
  end
  begin
     id 24 
     name rclavicle
     direction -0.893894 0.441652 -0.0767889   
     length 3.29361  
     axis 0 0 0   XYZ 
    dof ry rz
    limits (-10.0 20.0)
           (-20.0 0.0)
  end
  begin
     id 25 
     name rhumerus
     direction -1 -4.48945e-011 8.0491e-028  
     length 4.71404   
     axis 180 30 90   XYZ
    dof rx ry rz
    limits (-90.0 60.0)
           (-90.0 90.0)
           (-90.0 90.0)
  end
  begin
     id 26 
     name rradius
     direction -1 -4.48986e-011 9.27795e-027   
     length 2.83468   
     axis 180 30 90   XYZ
    dof rx
    limits (-10.0 170.0)
  end
  begin
     id 27 
     name rwrist
     direction -1 -4.49029e-011 1.5064e-026   
     length 1.41734   
     axis -9.31234e-015 -90 -90   XYZ
    dof ry
    limits (-180.0 0.0)
  end
  begin
     id 28
     name rhand
     direction -1 -4.48857e-011 3.01165e-026   
     length 0.868195   
     axis -1.92217e-014 -90 -90   XYZ
    dof rx rz
    limits (-90.0 90.0)
           (-45.0 45.0)
  end
  begin
     id 29
     name rfingers
     direction -1 -4.49048e-011 6.02585e-026   
     length 0.699961   
     axis -3.84436e-014 -90 -90   XYZ
    dof rx
    limits (0.0 90.0)
  end
  begin
     id 30
     name rthumb
     direction -0.707107 -6.34854e-011 0.707107   
     length 1.00501   
     axis -90 -45 -2.19363e-014   XYZ
    dof rx rz
    limits (-45.0 45.0)
           (-45.0 45.0)
  end
:hierarchy
  begin
    root lhipjoint rhipjoint lowerback
    lhipjoint lfemur
    lfemur ltibia
    ltibia lfoot
    lfoot ltoes
    rhipjoint rfemur
    rfemur rtibia
    rtibia rfoot
    rfoot rtoes
    lowerback upperback
    upperback thorax
    thorax lowerneck lclavicle rclavicle
    lowerneck upperneck
    upperneck head
    lclavicle lhumerus
    lhumerus lradius
    lradius lwrist
    lwrist lhand lthumb
    lhand lfingers
    rclavicle rhumerus
    rhumerus rradius
    rradius rwrist
    rwrist rhand rthumb
    rhand rfingers
  end

#!OML:ASF H:\ManfredObstacles\Project 1\Capture day 2\Session 1\male.ASF
:FULLY-SPECIFIED
:DEGREES
17
root -13.6448 15.4758 23.0085 -174.831 -6.32106 173.886
lowerback 0.190118 1.0095 -6.63595
upperback 4.0695 1.30494 -1.74929
thorax 3.99667 0.349405 1.93578
lowerneck -38.4037 -1.52486 -3.36795
upperneck 43.8347 -5.99095 3.28392
head 29.9137 -3.05716 0.164209
rclavicle -2.11644e-014 -1.87106e-014
rhumerus -48.7448 12.487 -88.3757
rradius 76.6314
rwrist 11.9809
rhand -15.4583 -7.98427
rfingers 7.12502
rthumb 10.7227 -37.6906
lclavicle -2.11644e-014 -1.87106e-014
lhumerus -56.6093 -19.0506 92.6825
lradius 94.4917
lwrist -17.3903
lhand -17.8778 6.99781
lfingers 7.12502
lthumb 8.38824 36.8112
rfemur -7.592 -7.00801 20.6372
rtibia 77.302
rfoot 14.0104 -20.385
rtoes -14.0536
lfemur -27.4857 -5.76957 -25.703
ltibia 41.5403
lfoot -1.018 18.1999
ltoes -3.86152
18
root -13.6319 15.3911 22.6981 -175.134 -6.4347 173.198
lowerback 1.16595 0.886797 -7.24824
upperback 4.25756 1.02575 -1.94593
thorax 3.65968 0.177915 2.0515
lowerneck -38.9047 -1.49214 -3.39758
upperneck 43.6955 -5.92127 3.51561
head 30.0139 -2.98641 0.359158
rclavicle 2.21769e-014 -7.8023e-015
rhumerus -48.9841 10.8521 -87.766
rradius 73.8098
rwrist 12.4243
rhand -15.6074 -8.60677
rfingers 7.12502
rthumb 10.5789 -38.3205
lclavicle 2.21769e-014 -7.8023e-015
lhumerus -54.4653 -19.4881 92.6872
lradius 93.5854
lwrist -17.4921
lhand -18.1368 7.51907
lfingers 7.12502
lthumb 8.13832 37.3423
rfemur -9.76227 -7.43776 19.7185
rtibia 80.6083
rfoot 12.6826 -20.068
rtoes -14.4998
lfemur -26.1424 -5.72663 -26.5099
ltibia 42.4304
lfoot -2.31937 19.7512
ltoes -3.92601
19
root -13.6177 15.3145 22.3928 -175.377 -6.43499 172.605
lowerback 2.08812 0.810576 -7.7645
upperback 4.42776 0.798525 -2.12541
thorax 3.33487 0.0359792 2.139
lowerneck -39.5487 -1.47935 -3.4257
upperneck 43.5732 -5.88689 3.74528
head 30.2286 -2.92325 0.540175
rclavicle 5.35476e-015 8.01599e-014
rhumerus -49.2139 9.19322 -87.0673
rradius 70.8278
rwrist 12.9435
rhand -15.639 -9.284
rfingers 7.12502
rthumb 10.5484 -38.9993
lclavicle 5.35476e-015 8.01599e-014
lhumerus -52.2566 -19.9451 92.6791
lradius 92.7219
lwrist -17.7246
lhand -18.3384 8.14453
lfingers 7.12502
lthumb 7.94376 37.9753
rfemur -12.1278 -7.66919 18.9643
rtibia 83.7056
rfoot 11.3257 -19.8675
rtoes -15.034
lfemur -24.8489 -5.55785 -27.1635
ltibia 43.2137
lfoot -3.41272 21.0693
ltoes -4.31347
20
root -13.602 15.2472 22.0922 -175.51 -6.36042 172.108
lowerback 2.89385 0.755778 -8.19436
upperback 4.5641 0.603544 -2.28205
thorax 3.04095 -0.0852333 2.20798
lowerneck -40.1647 -1.47053 -3.43419
upperneck 43.4486 -5.89387 3.99066
head 30.4303 -2.86886 0.714862
rclavicle 1.87727e-014 4.32854e-014
rhumerus -49.4549 7.56319 -86.317
rradius 67.7252
rwrist 13.3979
rhand -15.6173 -9.97416
rfingers 7.12502
rthumb 10.5694 -39.6884
lclavicle 1.87727e-014 4.32854e-014
lhumerus -50.022 -20.3913 92.6575
lradius 91.9402
lwrist -18.0437
lhand -18.4383 8.79576
lfingers 7.12502
lthumb 7.84732 38.6301
rfemur -14.7176 -7.72148 18.391
rtibia 86.5496
rfoot 9.95646 -19.8132
rtoes -15.5511
lfemur -23.6822 -5.29691 -27.6647
ltibia 43.9199
lfoot -4.32445 22.146
ltoes -5.02287
21
root -13.5842 15.1908 21.7951 -175.508 -6.23613 171.691
lowerback 3.77621 0.582846 -8.38041
upperback 4.70759 0.235291 -2.46511
thorax 2.73049 -0.285279 2.12075
lowerneck -41.5131 -1.41815 -3.51324
upperneck 43.364 -5.72725 4.24997
head 31.1359 -2.76266 0.987303
rclavicle 5.76476e-015 1.65985e-014
rhumerus -49.4083 6.31972 -85.6611
rradius 64.5062
rwrist 13.8032
rhand -15.5171 -10.6342
rfingers 7.12502
rthumb 10.666 -40.3435
lclavicle 5.76476e-015 1.65985e-014
lhumerus -47.5648 -20.4574 92.373
lradius 91.2751
lwrist -18.3822
lhand -18.4535 9.35211
lfingers 7.12502
lthumb 7.83265 39.187
rfemur -17.5394 -7.60185 17.9913
rtibia 89.0988
rfoot 8.5839 -19.9002
rtoes -15.8749
lfemur -22.6562 -4.98459 -28.0295
ltibia 44.5372
lfoot -5.08616 22.9899
ltoes -5.96796
22
root -13.5645 15.1468 21.4993 -175.384 -6.08711 171.336
lowerback 1.73993 0.691121 -9.41398
upperback 4.99548 0.641253 -2.28507
thorax 4.14627 -0.179735 2.87999
lowerneck -38.1668 -1.45227 -3.32836
upperneck 42.8087 -6.04308 4.3774
head 28.4311 -2.85563 0.904968
rclavicle -1.31198e-014 8.74653e-015
rhumerus -50.6453 4.20943 -84.3224
rradius 61.6199
rwrist 14.1278
rhand -15.3648 -11.1606
rfingers 7.12502
rthumb 10.8129 -40.8623
lclavicle -1.31198e-014 8.74653e-015
lhumerus -46.112 -21.4393 93.1835
lradius 90.7249
lwrist -18.6755
lhand -18.4213 9.70459
lfingers 7.12502
lthumb 7.86376 39.5383
rfemur -20.5333 -7.3345 17.7304
rtibia 91.2997
rfoot 7.2602 -20.0978
rtoes -16.1478
lfemur -21.7145 -4.65733 -28.291
ltibia 45.0177
lfoot -5.73297 23.6358
ltoes -7.07695
